# xmcd
#
# Track frame offsets:
#	150
#	25927
#	43228
#	59820
#	79516
#	101497
#	123981
#
# Disc length: 1869 seconds
#
# Revision: 2
# Processed by: cddbd v1.5.2PL0 Copyright (c) Steve Scherf et al.
# Submitted via: audiograbber 1.83.01
#
DISCID=59074b07
DTITLE=Mike Lowry Band - Mike Lowry Band
DYEAR=2001
DGENRE=Blues
TTITLE0=Let Me Love You Baby (live from "Back Porch Blues")
TTITLE1=Gettin' Burned
TTITLE2=Dark Before The Dawn
TTITLE3=Trying To Get Over You (live from "Back Porch Blues")
TTITLE4=Black Cat Bone
TTITLE5=That's All Right
TTITLE6=Before You Accuse Me
EXTD=Local Atlanta Band www.mikelowryband.com 770-455-MIKE
EXTT0=
EXTT1=
EXTT2=
EXTT3=
EXTT4=
EXTT5=
EXTT6=
PLAYORDER=
